<mxfile host="Electron" modified="2025-03-23T19:15:42.971Z" agent="Mozilla/5.0 (Windows NT 10.0; Win64; x64) AppleWebKit/537.36 (KHTML, like Gecko) draw.io/24.4.0 Chrome/120.0.6099.109 Electron/28.1.0 Safari/537.36" etag="wscfs8l1CRyzkIkARtZ5" version="24.4.0" type="device">
  <diagram name="Page-1" id="4qPayav1lRov5bKApCnR">
    <mxGraphModel dx="1036" dy="614" grid="1" gridSize="10" guides="1" tooltips="1" connect="1" arrows="1" fold="1" page="1" pageScale="1" pageWidth="827" pageHeight="1169" math="0" shadow="0">
      <root>
        <mxCell id="0" />
        <mxCell id="1" parent="0" />
        <mxCell id="hfYB_QdDsOCAJesvP3OJ-1" value="user" style="shape=umlActor;verticalLabelPosition=bottom;verticalAlign=top;html=1;outlineConnect=0;" parent="1" vertex="1">
          <mxGeometry x="50" y="210" width="30" height="60" as="geometry" />
        </mxCell>
        <mxCell id="hfYB_QdDsOCAJesvP3OJ-4" value="admin" style="shape=umlActor;verticalLabelPosition=bottom;verticalAlign=top;html=1;outlineConnect=0;" parent="1" vertex="1">
          <mxGeometry x="40" y="525" width="30" height="60" as="geometry" />
        </mxCell>
        <mxCell id="hfYB_QdDsOCAJesvP3OJ-8" value="Register profile" style="ellipse;whiteSpace=wrap;html=1;" parent="1" vertex="1">
          <mxGeometry x="370" y="190" width="140" height="30" as="geometry" />
        </mxCell>
        <mxCell id="hfYB_QdDsOCAJesvP3OJ-9" value="view files" style="ellipse;whiteSpace=wrap;html=1;" parent="1" vertex="1">
          <mxGeometry x="365" y="250" width="150" height="40" as="geometry" />
        </mxCell>
        <mxCell id="hfYB_QdDsOCAJesvP3OJ-10" value="submit forms&amp;nbsp;" style="ellipse;whiteSpace=wrap;html=1;" parent="1" vertex="1">
          <mxGeometry x="380" y="140" width="140" height="30" as="geometry" />
        </mxCell>
        <mxCell id="hfYB_QdDsOCAJesvP3OJ-14" value="update profile" style="ellipse;whiteSpace=wrap;html=1;" parent="1" vertex="1">
          <mxGeometry x="370" y="320" width="140" height="40" as="geometry" />
        </mxCell>
        <mxCell id="hfYB_QdDsOCAJesvP3OJ-18" value="" style="endArrow=block;dashed=1;endFill=0;endSize=12;html=1;rounded=0;exitX=0.75;exitY=0.1;exitDx=0;exitDy=0;exitPerimeter=0;entryX=0;entryY=0.5;entryDx=0;entryDy=0;" parent="1" source="hfYB_QdDsOCAJesvP3OJ-1" target="hfYB_QdDsOCAJesvP3OJ-10" edge="1">
          <mxGeometry width="160" relative="1" as="geometry">
            <mxPoint x="100" y="126" as="sourcePoint" />
            <mxPoint x="477.5" y="320" as="targetPoint" />
          </mxGeometry>
        </mxCell>
        <mxCell id="hfYB_QdDsOCAJesvP3OJ-19" value="upload files" style="ellipse;whiteSpace=wrap;html=1;" parent="1" vertex="1">
          <mxGeometry x="375" y="480" width="140" height="30" as="geometry" />
        </mxCell>
        <mxCell id="hfYB_QdDsOCAJesvP3OJ-20" value="view user files" style="ellipse;whiteSpace=wrap;html=1;" parent="1" vertex="1">
          <mxGeometry x="380" y="530" width="140" height="30" as="geometry" />
        </mxCell>
        <mxCell id="hfYB_QdDsOCAJesvP3OJ-21" value="register user" style="ellipse;whiteSpace=wrap;html=1;" parent="1" vertex="1">
          <mxGeometry x="390" y="600" width="140" height="30" as="geometry" />
        </mxCell>
        <mxCell id="hfYB_QdDsOCAJesvP3OJ-22" value="create group chat" style="ellipse;whiteSpace=wrap;html=1;" parent="1" vertex="1">
          <mxGeometry x="360" y="410" width="140" height="30" as="geometry" />
        </mxCell>
        <mxCell id="hfYB_QdDsOCAJesvP3OJ-23" value="add user" style="ellipse;whiteSpace=wrap;html=1;" parent="1" vertex="1">
          <mxGeometry x="590" y="480" width="140" height="30" as="geometry" />
        </mxCell>
        <mxCell id="hfYB_QdDsOCAJesvP3OJ-27" value="delete user" style="ellipse;whiteSpace=wrap;html=1;" parent="1" vertex="1">
          <mxGeometry x="370" y="660" width="140" height="30" as="geometry" />
        </mxCell>
        <mxCell id="hfYB_QdDsOCAJesvP3OJ-28" value="update user profile" style="ellipse;whiteSpace=wrap;html=1;" parent="1" vertex="1">
          <mxGeometry x="365" y="740" width="140" height="40" as="geometry" />
        </mxCell>
        <mxCell id="hfYB_QdDsOCAJesvP3OJ-31" value="" style="shape=umlFrame;whiteSpace=wrap;html=1;pointerEvents=0;" parent="1" vertex="1">
          <mxGeometry x="210" y="10" width="580" height="1140" as="geometry" />
        </mxCell>
        <mxCell id="hfYB_QdDsOCAJesvP3OJ-32" value="Eullafied Tech Solutions" style="text;html=1;align=center;verticalAlign=middle;resizable=0;points=[];autosize=1;strokeColor=none;fillColor=none;" parent="1" vertex="1">
          <mxGeometry x="380" y="18" width="150" height="30" as="geometry" />
        </mxCell>
        <mxCell id="hfYB_QdDsOCAJesvP3OJ-33" style="edgeStyle=orthogonalEdgeStyle;rounded=0;orthogonalLoop=1;jettySize=auto;html=1;exitX=0.5;exitY=1;exitDx=0;exitDy=0;" parent="1" source="hfYB_QdDsOCAJesvP3OJ-20" target="hfYB_QdDsOCAJesvP3OJ-20" edge="1">
          <mxGeometry relative="1" as="geometry" />
        </mxCell>
        <mxCell id="hfYB_QdDsOCAJesvP3OJ-34" value="removeUser" style="ellipse;whiteSpace=wrap;html=1;" parent="1" vertex="1">
          <mxGeometry x="600" y="410" width="140" height="37.5" as="geometry" />
        </mxCell>
        <mxCell id="hfYB_QdDsOCAJesvP3OJ-37" value="View appplications" style="ellipse;whiteSpace=wrap;html=1;" parent="1" vertex="1">
          <mxGeometry x="370" y="830" width="140" height="40" as="geometry" />
        </mxCell>
        <mxCell id="hfYB_QdDsOCAJesvP3OJ-40" value="" style="endArrow=block;dashed=1;endFill=0;endSize=12;html=1;rounded=0;exitX=1;exitY=0.3333333333333333;exitDx=0;exitDy=0;exitPerimeter=0;" parent="1" source="hfYB_QdDsOCAJesvP3OJ-1" edge="1">
          <mxGeometry width="160" relative="1" as="geometry">
            <mxPoint x="160" y="220" as="sourcePoint" />
            <mxPoint x="380" y="200" as="targetPoint" />
            <Array as="points" />
          </mxGeometry>
        </mxCell>
        <mxCell id="hfYB_QdDsOCAJesvP3OJ-41" value="Open Applications" style="ellipse;whiteSpace=wrap;html=1;" parent="1" vertex="1">
          <mxGeometry x="341" y="920" width="145" height="60" as="geometry" />
        </mxCell>
        <mxCell id="hfYB_QdDsOCAJesvP3OJ-42" value="" style="endArrow=block;dashed=1;endFill=0;endSize=12;html=1;rounded=0;exitX=0.5;exitY=0.5;exitDx=0;exitDy=0;exitPerimeter=0;" parent="1" source="hfYB_QdDsOCAJesvP3OJ-1" target="hfYB_QdDsOCAJesvP3OJ-9" edge="1">
          <mxGeometry width="160" relative="1" as="geometry">
            <mxPoint x="90" y="240" as="sourcePoint" />
            <mxPoint x="320" y="220" as="targetPoint" />
            <Array as="points" />
          </mxGeometry>
        </mxCell>
        <mxCell id="hfYB_QdDsOCAJesvP3OJ-43" value="" style="endArrow=block;dashed=1;endFill=0;endSize=12;html=1;rounded=0;entryX=0;entryY=0.5;entryDx=0;entryDy=0;" parent="1" source="hfYB_QdDsOCAJesvP3OJ-1" target="hfYB_QdDsOCAJesvP3OJ-14" edge="1">
          <mxGeometry width="160" relative="1" as="geometry">
            <mxPoint x="73" y="310.00299610894945" as="sourcePoint" />
            <mxPoint x="315" y="348.61" as="targetPoint" />
            <Array as="points" />
          </mxGeometry>
        </mxCell>
        <mxCell id="hfYB_QdDsOCAJesvP3OJ-44" value="" style="endArrow=block;dashed=1;endFill=0;endSize=12;html=1;rounded=0;exitX=0.75;exitY=0.1;exitDx=0;exitDy=0;exitPerimeter=0;entryX=0;entryY=0.5;entryDx=0;entryDy=0;" parent="1" source="hfYB_QdDsOCAJesvP3OJ-4" target="hfYB_QdDsOCAJesvP3OJ-22" edge="1">
          <mxGeometry width="160" relative="1" as="geometry">
            <mxPoint x="90" y="257" as="sourcePoint" />
            <mxPoint x="325" y="358.61" as="targetPoint" />
            <Array as="points" />
          </mxGeometry>
        </mxCell>
        <mxCell id="hfYB_QdDsOCAJesvP3OJ-45" value="" style="endArrow=block;dashed=1;endFill=0;endSize=12;html=1;rounded=0;exitX=0.25;exitY=0.1;exitDx=0;exitDy=0;exitPerimeter=0;entryX=0;entryY=0.5;entryDx=0;entryDy=0;" parent="1" source="hfYB_QdDsOCAJesvP3OJ-4" target="hfYB_QdDsOCAJesvP3OJ-19" edge="1">
          <mxGeometry width="160" relative="1" as="geometry">
            <mxPoint x="73" y="541" as="sourcePoint" />
            <mxPoint x="320" y="453" as="targetPoint" />
            <Array as="points" />
          </mxGeometry>
        </mxCell>
        <mxCell id="hfYB_QdDsOCAJesvP3OJ-46" value="" style="endArrow=block;dashed=1;endFill=0;endSize=12;html=1;rounded=0;exitX=0.25;exitY=0.1;exitDx=0;exitDy=0;exitPerimeter=0;" parent="1" target="hfYB_QdDsOCAJesvP3OJ-20" edge="1">
          <mxGeometry width="160" relative="1" as="geometry">
            <mxPoint x="58" y="541" as="sourcePoint" />
            <mxPoint x="320" y="505" as="targetPoint" />
            <Array as="points" />
          </mxGeometry>
        </mxCell>
        <mxCell id="hfYB_QdDsOCAJesvP3OJ-47" value="" style="endArrow=block;dashed=1;endFill=0;endSize=12;html=1;rounded=0;entryX=0.069;entryY=0.747;entryDx=0;entryDy=0;entryPerimeter=0;exitX=0.5;exitY=0.5;exitDx=0;exitDy=0;exitPerimeter=0;" parent="1" source="hfYB_QdDsOCAJesvP3OJ-4" target="hfYB_QdDsOCAJesvP3OJ-21" edge="1">
          <mxGeometry width="160" relative="1" as="geometry">
            <mxPoint x="50" y="560.47" as="sourcePoint" />
            <mxPoint x="192" y="570.0024074074074" as="targetPoint" />
            <Array as="points" />
          </mxGeometry>
        </mxCell>
        <mxCell id="hfYB_QdDsOCAJesvP3OJ-48" value="" style="endArrow=block;dashed=1;endFill=0;endSize=12;html=1;rounded=0;entryX=0;entryY=0.5;entryDx=0;entryDy=0;exitX=0.5;exitY=0.5;exitDx=0;exitDy=0;exitPerimeter=0;" parent="1" source="hfYB_QdDsOCAJesvP3OJ-4" target="hfYB_QdDsOCAJesvP3OJ-27" edge="1">
          <mxGeometry width="160" relative="1" as="geometry">
            <mxPoint x="80" y="569" as="sourcePoint" />
            <mxPoint x="330" y="632" as="targetPoint" />
            <Array as="points" />
          </mxGeometry>
        </mxCell>
        <mxCell id="hfYB_QdDsOCAJesvP3OJ-49" value="" style="endArrow=block;dashed=1;endFill=0;endSize=12;html=1;rounded=0;exitX=0.5;exitY=0.5;exitDx=0;exitDy=0;exitPerimeter=0;" parent="1" source="hfYB_QdDsOCAJesvP3OJ-4" edge="1">
          <mxGeometry width="160" relative="1" as="geometry">
            <mxPoint x="240" y="750.0026966292133" as="sourcePoint" />
            <mxPoint x="380" y="757.8678651685392" as="targetPoint" />
            <Array as="points" />
          </mxGeometry>
        </mxCell>
        <mxCell id="hfYB_QdDsOCAJesvP3OJ-50" value="" style="endArrow=block;dashed=1;endFill=0;endSize=12;html=1;rounded=0;entryX=0;entryY=0.5;entryDx=0;entryDy=0;" parent="1" source="hfYB_QdDsOCAJesvP3OJ-4" target="hfYB_QdDsOCAJesvP3OJ-37" edge="1">
          <mxGeometry width="160" relative="1" as="geometry">
            <mxPoint x="80" y="575" as="sourcePoint" />
            <mxPoint x="325" y="745" as="targetPoint" />
            <Array as="points" />
          </mxGeometry>
        </mxCell>
        <mxCell id="hfYB_QdDsOCAJesvP3OJ-51" value="" style="endArrow=block;dashed=1;endFill=0;endSize=12;html=1;rounded=0;entryX=0;entryY=0.5;entryDx=0;entryDy=0;exitX=0.5;exitY=0.5;exitDx=0;exitDy=0;exitPerimeter=0;" parent="1" source="hfYB_QdDsOCAJesvP3OJ-4" target="hfYB_QdDsOCAJesvP3OJ-41" edge="1">
          <mxGeometry width="160" relative="1" as="geometry">
            <mxPoint x="80" y="580" as="sourcePoint" />
            <mxPoint x="320" y="820" as="targetPoint" />
            <Array as="points" />
          </mxGeometry>
        </mxCell>
        <mxCell id="341daQeHTZh84fdWGCoq-1" value="" style="endArrow=block;dashed=1;endFill=0;endSize=12;html=1;rounded=0;exitX=0.75;exitY=0.1;exitDx=0;exitDy=0;exitPerimeter=0;entryX=0;entryY=0.5;entryDx=0;entryDy=0;" edge="1" parent="1">
          <mxGeometry width="160" relative="1" as="geometry">
            <mxPoint x="83" y="226" as="sourcePoint" />
            <mxPoint x="390" y="145" as="targetPoint" />
          </mxGeometry>
        </mxCell>
        <mxCell id="341daQeHTZh84fdWGCoq-2" value="View product" style="ellipse;whiteSpace=wrap;html=1;" vertex="1" parent="1">
          <mxGeometry x="400" y="48" width="140" height="70" as="geometry" />
        </mxCell>
        <mxCell id="341daQeHTZh84fdWGCoq-3" value="buy product" style="ellipse;whiteSpace=wrap;html=1;" vertex="1" parent="1">
          <mxGeometry x="580" y="80" width="140" height="70" as="geometry" />
        </mxCell>
        <mxCell id="341daQeHTZh84fdWGCoq-4" value="upload product" style="ellipse;whiteSpace=wrap;html=1;" vertex="1" parent="1">
          <mxGeometry x="520" y="670" width="140" height="70" as="geometry" />
        </mxCell>
        <mxCell id="341daQeHTZh84fdWGCoq-5" value="delete product" style="ellipse;whiteSpace=wrap;html=1;" vertex="1" parent="1">
          <mxGeometry x="550" y="810" width="140" height="70" as="geometry" />
        </mxCell>
        <mxCell id="341daQeHTZh84fdWGCoq-6" value="upload product&lt;div&gt;&lt;br&gt;&lt;/div&gt;" style="ellipse;whiteSpace=wrap;html=1;" vertex="1" parent="1">
          <mxGeometry x="650" y="725" width="140" height="70" as="geometry" />
        </mxCell>
        <mxCell id="341daQeHTZh84fdWGCoq-7" value="Use Case" style="ellipse;whiteSpace=wrap;html=1;" vertex="1" parent="1">
          <mxGeometry x="630" y="880" width="140" height="70" as="geometry" />
        </mxCell>
      </root>
    </mxGraphModel>
  </diagram>
</mxfile>
